<svg width="57" height="58" viewBox="0 0 57 58" fill="none" xmlns="http://www.w3.org/2000/svg">
<path d="M28.0937 58C43.6095 58 56.1875 45.422 56.1875 29.9062C56.1875 14.3905 43.6095 1.8125 28.0937 1.8125C12.578 1.8125 0 14.3905 0 29.9062C0 45.422 12.578 58 28.0937 58Z" fill="#349F59"/>
<path d="M28.0937 56.1875C43.6095 56.1875 56.1875 43.6095 56.1875 28.0937C56.1875 12.578 43.6095 0 28.0937 0C12.578 0 0 12.578 0 28.0937C0 43.6095 12.578 56.1875 28.0937 56.1875Z" fill="#3DBB69"/>
<path opacity="0.15" d="M55.7344 33.0962L39.4219 16.7837L26.4716 20.1278L25.1484 28.9999L13.8566 42.3309L27.7131 56.1874H28.0938C34.6763 56.1865 41.0495 53.8741 46.1012 49.6539C51.1529 45.4336 54.5623 39.5735 55.7344 33.0962Z" fill="black"/>
<path d="M31.7187 13.5938C29.9269 13.5948 28.163 14.0385 26.584 14.8856C25.005 15.7326 23.6597 16.9567 22.6678 18.449C21.676 19.9413 21.0682 21.6556 20.8986 23.4394C20.729 25.2232 21.0028 27.0213 21.6956 28.6738L13.8566 36.5129C13.7726 36.5975 13.7061 36.698 13.661 36.8084C13.6159 36.9188 13.5931 37.037 13.5937 37.1563V41.6875C13.5937 41.9279 13.6892 42.1584 13.8592 42.3284C14.0291 42.4983 14.2596 42.5938 14.5 42.5938H19.0312C19.2716 42.5938 19.5021 42.4983 19.6721 42.3284C19.842 42.1584 19.9375 41.9279 19.9375 41.6875V38.9688H22.6562C22.8966 38.9688 23.1271 38.8733 23.2971 38.7034C23.467 38.5334 23.5625 38.3029 23.5625 38.0625V34.8091L25.2119 33.1597C26.5905 34.1967 28.196 34.8908 29.8959 35.1847C31.5957 35.4787 33.3411 35.364 34.9879 34.8502C36.6347 34.3364 38.1356 33.4382 39.3667 32.2298C40.5978 31.0214 41.5238 29.5375 42.0682 27.9006C42.6126 26.2636 42.7597 24.5207 42.4975 22.8157C42.2353 21.1106 41.5712 19.4924 40.5601 18.0947C39.549 16.697 38.2199 15.5599 36.6826 14.7773C35.1453 13.9947 33.4438 13.589 31.7187 13.5938ZM33.5312 26.2813C32.8143 26.2813 32.1134 26.0687 31.5173 25.6704C30.9212 25.272 30.4566 24.7059 30.1822 24.0435C29.9078 23.3811 29.836 22.6523 29.9759 21.9491C30.1158 21.2459 30.461 20.6 30.968 20.093C31.475 19.5861 32.1209 19.2408 32.824 19.1009C33.5272 18.9611 34.2561 19.0329 34.9185 19.3072C35.5809 19.5816 36.147 20.0462 36.5453 20.6423C36.9436 21.2385 37.1562 21.9393 37.1562 22.6563C37.1562 23.6177 36.7743 24.5397 36.0945 25.2196C35.4147 25.8994 34.4927 26.2813 33.5312 26.2813Z" fill="#FFFCF2"/>
</svg>
